# xmcd CD database file
#
# Track frame offsets:
#	150
#	22020
#	39175
#	51500
#	66990
#	99050
#	124700
#	149185
#	178415
#	209020
#	220950
#	238490
#	264595
#	282655
#	303187
#
# Disc length: 4759 seconds
#
# Revision: 0
# Processed by: cddbd v1.4PL0 Copyright (c) Steve Scherf et al.
# Submitted via: CDex 1.50
#
DISCID=f812950f
DTITLE=Billy Boy Arnold - Live At The Venue
DYEAR=1980
DGENRE=Blues
TTITLE0=Night Before Last
TTITLE1=It Ain't Right
TTITLE2=Catfish
TTITLE3=I Ain't Got You
TTITLE4=Dirty Motherfuyer
TTITLE5=Prisoner's Plea
TTITLE6=Mary Bernice
TTITLE7=Trust Me Baby
TTITLE8=Ooh Wee
TTITLE9=Riding The El
TTITLE10=Me And Piney Brown
TTITLE11=Shake Your Boogie
TTITLE12=I Wish You Would
TTITLE13=Blues Before Sunrise
TTITLE14=Netti-Netti - Instrumental Raga
EXTD=YEAR: 1980
EXTT0=
EXTT1=
EXTT2=
EXTT3=
EXTT4=
EXTT5=
EXTT6=
EXTT7=
EXTT8=
EXTT9=
EXTT10=
EXTT11=
EXTT12=
EXTT13=
EXTT14=
PLAYORDER=
